<?xml version="1.0" standalone="no"?>
<!DOCTYPE svg PUBLIC "-//W3C//DTD SVG 20010904//EN"
 "http://www.w3.org/TR/2001/REC-SVG-20010904/DTD/svg10.dtd">
<svg version="1.0" xmlns="http://www.w3.org/2000/svg"
 width="300.000000pt" height="287.000000pt" viewBox="0 0 300.000000 287.000000"
 preserveAspectRatio="xMidYMid meet">
<metadata>
Created by potrace 1.10, written by Peter Selinger 2001-2011
</metadata>
<g transform="translate(0.000000,287.000000) scale(0.100000,-0.100000)"
fill="#000000" stroke="none">
<path d="M1834 2760 c-140 -63 -259 -170 -309 -277 l-27 -57 17 -55 c12 -37
18 -85 18 -139 l-1 -84 37 6 c20 4 68 22 108 42 155 75 234 230 232 453 -1 53
-4 106 -7 118 l-7 21 -61 -28z m36 -32 c-1 -13 2 -46 6 -73 8 -67 -18 -201
-53 -273 -15 -31 -46 -73 -67 -95 -47 -46 -133 -88 -173 -85 -29 2 -29 2 -25
57 2 32 -3 77 -12 105 -14 45 -13 52 6 105 28 74 125 171 233 233 44 26 81 47
82 47 2 1 3 -9 3 -21z"/>
<path d="M1725 2483 c-58 -100 -68 -120 -48 -94 24 32 85 141 80 141 -3 0 -17
-21 -32 -47z"/>
<path d="M1069 2645 c-10 -9 11 -141 33 -209 56 -176 191 -286 350 -286 47 0
48 1 49 33 1 17 3 43 4 56 4 42 -20 136 -47 182 -63 107 -171 172 -369 225 -8
2 -18 2 -20 -1z m73 -77 c34 -36 37 -38 19 -10 -22 31 -22 32 -3 32 11 0 41
-10 68 -22 158 -69 244 -175 244 -299 0 -43 -11 -64 -22 -41 -2 4 -16 18 -32
32 -22 19 -19 13 12 -26 23 -27 42 -53 42 -56 0 -8 -89 10 -143 29 -102 37
-180 151 -216 316 -10 48 -17 87 -15 87 3 0 23 -19 46 -42z"/>
<path d="M135 2270 c-3 -6 0 -12 7 -15 26 -10 963 0 963 10 0 14 -961 19 -970
5z"/>
<path d="M1877 2274 c-4 -4 -4 -11 -1 -15 3 -5 221 -9 485 -9 419 0 479 2 479
15 0 13 -60 15 -478 15 -263 0 -482 -3 -485 -6z"/>
<path d="M876 1978 l1 -73 92 0 92 0 2 73 2 72 -95 0 -95 0 1 -72z m144 28 c6
-8 10 -25 8 -38 -3 -21 -8 -23 -58 -23 -53 0 -55 1 -58 29 -2 16 2 32 10 37
21 14 85 10 98 -5z"/>
<path d="M2538 1950 l4 -100 -56 0 -57 0 3 -72 3 -73 53 3 53 4 -2 -234 -1
-233 92 0 92 0 -1 233 -2 232 58 -2 58 -3 3 73 3 72 -61 0 -62 0 4 100 3 100
-95 0 -96 0 4 -100z m136 64 c13 -5 16 -22 16 -80 0 -82 18 -114 64 -114 30 0
49 -22 44 -52 -2 -18 -10 -24 -34 -26 -17 -2 -41 -13 -53 -25 -19 -21 -21 -35
-23 -227 l-3 -205 -55 0 -55 0 -3 205 c-2 193 -4 205 -24 227 -12 13 -32 23
-45 23 -27 0 -38 20 -29 55 5 18 13 25 31 25 47 0 65 32 65 114 0 50 4 76 13
79 18 8 73 8 91 1z"/>
<path d="M370 1861 c-166 -51 -261 -225 -216 -399 38 -149 148 -236 297 -235
59 1 105 19 139 55 l20 22 0 -25 c0 -13 -9 -43 -20 -67 -14 -32 -29 -47 -57
-58 -54 -23 -121 -14 -148 20 -20 25 -24 26 -129 26 -119 0 -112 6 -85 -67 15
-40 79 -100 132 -124 44 -20 68 -24 157 -24 94 0 111 3 166 28 70 33 125 84
151 142 16 35 18 78 21 368 l3 327 -95 0 c-95 0 -96 0 -96 -25 l0 -24 -26 24
c-43 40 -144 57 -214 36z m185 -53 c41 -20 45 -20 78 -5 37 18 112 23 121 8 3
-5 6 -141 6 -302 1 -215 -3 -304 -12 -331 -17 -48 -67 -101 -120 -127 -84 -40
-227 -46 -310 -13 -40 16 -108 81 -108 103 0 17 8 19 71 19 62 0 75 -3 102
-26 28 -23 38 -26 92 -22 69 4 115 30 141 80 22 42 25 65 12 94 -14 30 -26 30
-89 -2 -45 -24 -58 -26 -116 -21 -110 11 -195 77 -229 180 -25 75 -16 188 20
250 77 130 214 177 341 115z"/>
<path d="M394 1706 c-17 -8 -44 -31 -60 -52 -25 -33 -29 -46 -29 -104 0 -54 5
-73 25 -103 55 -81 156 -101 235 -47 55 38 75 78 75 150 0 47 -5 64 -30 98
-16 23 -43 48 -59 57 -37 18 -115 19 -157 1z m152 -35 c57 -35 81 -128 49
-191 -63 -123 -240 -93 -260 45 -9 54 20 121 62 147 37 23 110 23 149 -1z"/>
<path d="M1340 1861 c-84 -26 -149 -82 -192 -164 -33 -63 -37 -203 -9 -277 39
-105 117 -171 225 -191 77 -14 154 2 197 42 17 16 33 29 35 29 2 0 1 -13 -2
-30 l-6 -30 96 0 96 0 0 305 0 305 -96 0 -96 0 6 -32 6 -32 -27 26 c-16 15
-45 34 -65 42 -39 17 -125 20 -168 7z m198 -58 l49 -27 28 22 c17 14 42 22 64
22 67 0 66 5 69 -247 2 -125 0 -243 -3 -260 -6 -32 -7 -33 -56 -33 -30 0 -63
7 -80 17 -29 17 -31 17 -75 -6 -129 -69 -283 -19 -349 114 -26 53 -30 70 -30
145 0 70 5 94 25 134 70 138 229 191 358 119z"/>
<path d="M1401 1718 c-80 -22 -124 -84 -125 -175 0 -55 4 -67 30 -99 60 -75
151 -95 229 -51 54 31 85 87 85 157 0 118 -107 200 -219 168z m127 -48 c60
-37 81 -134 42 -198 -25 -41 -76 -72 -118 -72 -135 0 -195 159 -97 257 29 29
39 33 87 33 36 0 64 -7 86 -20z"/>
<path d="M2104 1856 c-17 -7 -40 -26 -52 -41 l-22 -28 0 32 0 31 -90 0 -90 0
0 -305 0 -305 94 0 95 0 3 199 c3 195 4 200 27 225 18 19 35 26 63 26 89 0 98
-25 98 -266 l0 -184 96 0 96 0 -4 233 c-4 243 -10 280 -56 330 -49 55 -191 84
-258 53z m130 -27 c61 -12 101 -40 126 -90 19 -36 20 -56 18 -246 l-3 -208
-55 0 -55 0 -5 180 c-5 187 -10 210 -52 239 -27 19 -116 21 -138 3 -54 -44
-55 -49 -60 -241 l-5 -181 -55 0 -55 0 -3 254 c-2 179 1 258 9 267 16 20 69
17 106 -6 l32 -19 54 28 c60 31 73 33 141 20z"/>
<path d="M877 1548 l2 -303 91 0 91 0 2 303 2 302 -95 0 -95 0 2 -302z m142
258 c8 -9 11 -88 9 -267 l-3 -254 -55 0 -55 0 -3 254 c-2 179 1 258 9 267 6 8
28 14 49 14 21 0 43 -6 49 -14z"/>
<path d="M2050 745 l0 -405 89 0 89 0 1 405 1 405 -90 0 -90 0 0 -405z m124
369 c14 -5 16 -47 16 -369 l0 -363 -35 -6 c-19 -4 -43 -2 -54 4 -19 10 -20 23
-19 361 0 291 3 353 15 365 15 15 50 18 77 8z"/>
<path d="M329 905 c-62 -20 -142 -93 -174 -159 -35 -71 -36 -171 -4 -245 43
-101 162 -181 269 -181 98 0 206 67 258 159 l23 41 -91 0 c-84 0 -95 -2 -122
-25 -34 -29 -84 -33 -128 -10 -29 15 -60 51 -60 70 0 7 69 9 205 7 l205 -3 0
60 c0 117 -64 222 -167 272 -57 27 -153 34 -214 14z m182 -39 c55 -20 103 -61
132 -115 30 -55 46 -134 29 -145 -6 -4 -87 -7 -180 -7 -188 0 -212 -7 -212
-58 0 -28 34 -68 77 -90 38 -19 104 -13 148 14 43 26 109 33 121 13 9 -14 -68
-85 -113 -104 -18 -8 -63 -14 -100 -14 -56 0 -76 5 -115 28 -159 92 -184 296
-51 424 21 20 54 44 73 52 43 19 142 20 191 2z"/>
<path d="M354 786 c-36 -16 -74 -61 -74 -87 0 -36 38 -49 142 -49 85 0 101 3
118 20 26 26 25 41 -2 75 -40 51 -120 69 -184 41z m120 -30 c29 -12 66 -49 66
-66 0 -3 -54 -5 -120 -5 -66 0 -120 2 -120 5 0 16 37 54 64 66 40 17 69 17
110 0z"/>
<path d="M932 901 c-67 -23 -133 -86 -162 -154 -16 -37 -21 -69 -21 -129 1
-125 47 -211 141 -262 93 -51 203 -46 271 11 l30 26 -7 -27 -6 -26 91 0 91 0
0 280 0 280 -91 0 -91 0 6 -25 c8 -31 3 -31 -27 -1 -47 47 -137 58 -225 27z
m193 -45 c50 -23 51 -23 85 -5 36 20 76 24 97 11 11 -7 18 -202 14 -408 l-1
-71 -36 -6 c-23 -4 -51 0 -76 10 -40 16 -43 16 -85 -7 -66 -35 -154 -32 -219
9 -83 51 -124 126 -124 229 0 80 18 129 70 184 74 80 177 100 275 54z"/>
<path d="M995 778 c-36 -13 -82 -58 -95 -94 -23 -61 -1 -153 46 -196 11 -9 38
-22 61 -28 106 -32 204 44 205 159 0 80 -43 140 -117 160 -48 13 -61 13 -100
-1z m125 -43 c38 -20 60 -63 60 -118 0 -111 -120 -172 -205 -105 -73 57 -72
159 1 217 32 25 101 28 144 6z"/>
<path d="M1589 904 c-64 -19 -140 -90 -170 -156 -29 -66 -32 -191 -6 -251 41
-96 129 -161 235 -174 61 -7 133 16 157 50 21 29 26 18 14 -29 -14 -50 -43
-81 -90 -95 -44 -14 -104 2 -119 32 -10 17 -22 19 -111 19 l-101 0 7 -28 c11
-46 54 -102 100 -131 148 -94 391 -40 468 102 21 40 22 54 25 350 l4 307 -91
0 -91 0 6 -27 7 -28 -29 27 c-51 46 -131 58 -215 32z m180 -44 c41 -19 45 -19
90 -3 59 21 97 13 104 -23 2 -14 4 -137 3 -272 -2 -265 -7 -295 -59 -350 -95
-102 -340 -108 -422 -11 -39 48 -34 59 29 59 39 0 68 -7 102 -25 56 -30 94
-31 151 -6 69 32 107 136 61 165 -13 8 -28 5 -63 -12 -160 -77 -337 44 -336
231 0 77 12 119 48 166 35 46 49 58 98 81 53 26 137 26 194 0z"/>
<path d="M1661 779 c-76 -15 -123 -77 -123 -160 2 -155 173 -223 276 -109 36
40 42 66 36 140 -5 55 -50 109 -109 129 -19 6 -34 11 -35 10 -1 -1 -21 -5 -45
-10z m99 -44 c79 -41 79 -193 0 -235 -32 -17 -104 -14 -135 6 -76 50 -72 186
7 230 31 18 93 17 128 -1z"/>
<path d="M2472 906 c-128 -42 -207 -154 -207 -291 1 -117 58 -211 160 -260
101 -50 200 -44 291 18 43 29 114 115 114 138 0 5 -39 9 -87 9 -76 0 -90 -3
-111 -22 -19 -18 -35 -23 -79 -23 -50 0 -57 3 -89 37 -19 21 -34 41 -34 45 0
5 93 8 207 8 l208 0 3 51 c6 105 -62 221 -160 270 -61 31 -156 40 -216 20z
m220 -62 c59 -42 97 -93 113 -152 24 -94 28 -92 -166 -92 -92 0 -179 -4 -192
-9 -34 -13 -40 -37 -21 -77 34 -71 143 -96 219 -49 51 31 115 35 115 6 0 -22
-69 -81 -116 -100 -84 -33 -221 2 -280 72 -92 108 -87 265 11 362 58 59 107
76 198 72 66 -3 84 -8 119 -33z"/>
<path d="M2481 782 c-19 -10 -43 -34 -53 -53 -18 -33 -17 -34 2 -54 18 -18 33
-20 131 -20 94 0 113 3 123 18 55 74 -108 162 -203 109z m135 -28 c19 -9 41
-28 48 -43 l14 -26 -119 0 c-126 0 -137 5 -96 42 51 47 95 54 153 27z"/>
<path d="M2870 616 c-27 -33 18 -72 48 -42 13 13 14 20 6 34 -15 23 -38 26
-54 8z"/>
</g>
</svg>
