<?xml version="1.0" standalone="no"?>
<!DOCTYPE svg PUBLIC "-//W3C//DTD SVG 20010904//EN"
 "http://www.w3.org/TR/2001/REC-SVG-20010904/DTD/svg10.dtd">
<svg version="1.0" xmlns="http://www.w3.org/2000/svg"
 width="414.000000pt" height="534.000000pt" viewBox="0 0 414.000000 534.000000"
 preserveAspectRatio="xMidYMid meet">
<metadata>
Created by potrace 1.16, written by Peter Selinger 2001-2019
</metadata>
<g transform="translate(0.000000,534.000000) scale(0.100000,-0.100000)"
fill="#000000" stroke="none">
<path d="M0 2670 l0 -2670 2070 0 2070 0 0 2670 0 2670 -2070 0 -2070 0 0
-2670z m4130 769 c0 -1512 -3 -1889 -12 -1882 -129 102 -260 173 -585 319 -82
36 -197 92 -258 124 -60 32 -139 67 -175 79 -123 41 -128 46 -166 145 -19 50
-44 106 -56 125 -48 78 -161 220 -170 214 -7 -4 -8 -65 -4 -178 6 -160 5 -177
-14 -229 -22 -57 -73 -133 -164 -242 -28 -33 -73 -89 -101 -123 -27 -35 -65
-81 -82 -103 -18 -22 -33 -49 -33 -60 0 -11 -8 -22 -20 -25 -11 -3 -20 -10
-20 -15 0 -5 5 -6 10 -3 6 3 10 4 10 1 0 -3 -15 -12 -33 -20 -33 -13 -61 -46
-70 -81 -4 -18 -5 -17 -6 3 -1 22 -2 22 -31 7 -16 -8 -36 -27 -43 -42 l-14
-26 -24 40 c-17 30 -38 48 -78 68 -40 19 -51 29 -42 38 16 16 14 20 -16 54
-16 16 -35 39 -43 51 -8 12 -20 22 -27 22 -7 0 -13 4 -13 9 0 5 -11 12 -25 15
-14 4 -25 12 -23 19 3 18 -12 57 -23 57 -5 0 -9 5 -9 11 0 6 -6 17 -12 24 -7
8 -38 48 -68 90 -30 42 -88 117 -128 168 -90 114 -113 172 -115 290 -1 48 -5
87 -9 87 -5 0 -8 14 -8 31 0 18 4 28 10 24 6 -4 8 -10 5 -15 -3 -4 8 -22 25
-39 18 -20 27 -38 23 -48 -5 -12 -2 -15 10 -10 11 4 14 2 11 -7 -3 -8 5 -16
20 -20 14 -3 42 -24 62 -46 21 -22 42 -40 48 -40 6 0 25 -11 41 -25 53 -44 52
-43 107 -53 15 -2 26 -8 23 -12 -3 -4 2 -11 11 -14 11 -4 15 -2 11 8 -4 11 -1
13 10 9 12 -5 14 -3 8 6 -6 10 -2 11 16 5 37 -12 210 -16 339 -9 95 6 100 7
100 16 0 5 12 4 26 -1 34 -13 39 -13 25 4 -10 12 -8 13 8 9 13 -3 21 -1 21 6
0 7 5 9 10 6 6 -3 13 1 16 9 3 9 14 16 24 16 11 0 22 5 25 10 4 6 11 8 16 5 5
-4 9 -2 9 3 0 6 16 19 36 31 19 12 32 26 29 31 -4 6 -3 9 2 8 4 -2 9 2 11 7 3
10 50 75 61 85 4 3 14 21 23 40 9 19 23 46 31 60 48 85 88 172 82 178 -3 4
-11 -1 -16 -11 -6 -9 -17 -17 -26 -17 -10 0 -14 -6 -10 -19 3 -13 -1 -21 -14
-24 -13 -4 -18 -13 -17 -29 2 -18 -2 -23 -19 -22 -13 1 -23 -4 -23 -12 0 -8
-5 -14 -11 -14 -6 0 -8 -7 -5 -16 3 -8 2 -12 -4 -9 -6 4 -17 -1 -26 -9 -8 -9
-22 -16 -29 -16 -8 0 -20 -8 -27 -18 -10 -14 -63 -43 -88 -48 -19 -4 -39 -18
-35 -25 7 -10 -32 -32 -44 -25 -5 3 -11 0 -14 -7 -3 -8 -16 -13 -29 -12 -12 1
-31 -5 -40 -13 -10 -8 -18 -10 -18 -5 0 6 -7 13 -14 16 -10 4 -13 1 -9 -9 5
-13 -14 -20 -41 -15 -4 1 -14 -4 -22 -10 -8 -6 -14 -7 -14 -2 0 11 -130 11
-148 -1 -7 -4 -12 -2 -12 5 0 8 -4 8 -13 1 -8 -7 -18 -7 -27 -2 -10 6 -22 4
-35 -4 -12 -8 -28 -10 -40 -5 -11 4 -16 8 -12 8 5 1 5 6 2 11 -5 8 -11 7 -21
0 -10 -9 -21 -8 -45 4 -18 9 -40 16 -49 16 -10 0 -21 7 -24 16 -3 8 -10 13
-15 9 -6 -3 -15 4 -21 15 -6 12 -18 19 -25 16 -7 -2 -19 1 -25 9 -8 10 -8 14
1 17 7 2 5 9 -7 18 -11 9 -15 10 -10 2 4 -7 1 -15 -8 -18 -9 -3 -13 -11 -9
-18 3 -6 -4 -1 -16 12 -12 12 -41 34 -63 49 -69 43 -143 112 -121 113 4 1 -4
8 -19 16 -16 8 -28 21 -28 29 0 8 -6 15 -12 16 -10 0 -10 2 0 6 10 4 9 9 -4
24 -9 10 -23 19 -30 19 -8 0 -11 6 -8 15 4 8 2 15 -4 15 -10 0 -44 63 -48 89
-2 7 -7 18 -13 24 -31 31 68 -194 117 -267 26 -38 28 -46 15 -58 -16 -17 -113
-265 -138 -356 l-17 -59 -86 -37 c-88 -38 -212 -102 -179 -92 11 4 16 2 12 -5
-4 -6 -14 -8 -22 -5 -15 6 -84 -30 -91 -46 -2 -5 -9 -5 -15 -1 -7 4 -5 -2 3
-13 8 -10 10 -16 6 -12 -15 13 -38 -13 -26 -27 8 -9 6 -14 -5 -19 -11 -4 -14
-2 -9 7 4 6 -2 4 -13 -6 -12 -10 -32 -20 -45 -22 -12 -2 -34 -6 -48 -10 -24
-6 -24 -6 -6 9 23 19 20 20 -23 5 -17 -6 -31 -15 -31 -20 0 -4 7 -6 15 -3 23
9 18 -4 -6 -17 -16 -8 -23 -8 -29 0 -4 8 -14 5 -32 -8 -14 -11 -28 -18 -31
-15 -3 3 -18 -2 -34 -11 -15 -9 -20 -14 -10 -11 11 4 16 2 12 -5 -4 -6 -14 -8
-22 -5 -14 6 -62 -18 -229 -113 -87 -49 -131 -81 -233 -169 l-51 -44 0 1936 0
1936 2060 0 2060 0 0 -1891z m-2660 -1268 c0 -5 15 -25 34 -43 19 -18 60 -75
91 -127 74 -122 124 -191 138 -192 7 0 3 -4 -8 -9 -15 -6 -25 -2 -38 14 l-18
21 11 -23 c18 -36 1 -40 -27 -7 -16 20 -21 23 -14 8 6 -12 16 -25 21 -28 15
-9 12 -25 -4 -25 -8 0 -17 8 -20 18 -4 9 -16 28 -27 42 -15 18 -13 12 6 -22
22 -39 24 -50 14 -61 -11 -11 -18 -6 -44 32 -29 44 -64 114 -50 99 4 -4 25
-36 46 -70 22 -35 39 -59 39 -54 0 4 -15 34 -33 65 -40 66 -87 158 -87 168 0
4 16 -20 36 -53 19 -32 40 -63 46 -69 6 -5 1 6 -11 25 -12 19 -27 49 -33 65
-7 17 -31 68 -56 113 -46 89 -52 124 -8 47 40 -68 41 -54 1 18 -37 68 -46 99
-20 73 8 -8 15 -19 15 -25z m1277 -93 l-6 -43 14 30 14 30 1 -35 c1 -30 3 -32
11 -15 7 15 8 10 5 -20 -5 -39 -5 -39 9 -15 l14 25 1 -25 c0 -20 2 -22 10 -10
9 13 10 13 10 0 0 -14 -79 -261 -86 -269 -12 -14 -9 12 7 63 11 33 17 61 15
64 -3 2 -14 -28 -26 -67 -22 -71 -38 -96 -27 -42 16 79 15 81 -6 19 -19 -59
-24 -65 -39 -54 -15 11 -15 18 8 86 13 41 22 79 20 85 -4 11 -7 5 -33 -82 -10
-35 -22 -63 -27 -63 -4 0 -5 8 -1 18 15 36 18 55 8 49 -6 -4 -13 -20 -17 -37
-6 -31 -6 -31 -29 -13 -15 11 -22 24 -19 35 2 10 2 18 -1 18 -4 0 -11 -19 -18
-42 -10 -38 -12 -41 -24 -25 -12 17 -14 15 -25 -17 -6 -20 -17 -37 -23 -37
-55 -5 -74 -11 -112 -33 -49 -29 -55 -31 -55 -14 0 6 3 8 6 5 4 -4 20 5 36 18
16 14 35 25 42 25 7 0 19 12 26 28 8 17 14 22 17 14 3 -8 13 2 23 25 10 21 25
47 34 58 l16 20 -6 -20 c-4 -16 -4 -17 5 -4 5 8 12 27 15 42 7 39 17 52 27 36
6 -10 9 -6 9 13 0 15 5 30 10 33 6 4 10 -10 10 -35 0 -23 4 -39 8 -36 5 3 7
18 5 33 -3 15 0 39 6 53 8 21 10 22 11 5 1 -32 20 4 21 40 0 25 2 27 8 10 7
-17 8 -17 15 8 3 15 11 25 15 22 5 -3 15 11 21 30 12 35 30 41 26 7 -2 -9 2
-2 7 16 14 45 21 40 14 -10z m-1741 -135 c0 -32 5 -119 12 -193 6 -74 17 -196
22 -270 9 -119 15 -176 35 -360 10 -94 17 -355 10 -348 -4 4 -10 47 -12 95 -2
49 -11 165 -21 258 -9 94 -17 194 -17 223 0 28 -3 52 -7 52 -5 0 -8 25 -8 55
0 30 -4 55 -8 55 -8 0 -4 -58 21 -287 11 -102 11 -123 0 -123 -7 0 -13 9 -13
20 0 11 -9 113 -19 227 -11 115 -22 262 -25 328 -3 66 -8 159 -12 208 -5 56
-3 87 3 87 10 0 17 -81 29 -320 6 -118 9 -139 18 -129 3 4 -3 116 -19 350 -6
91 -4 129 9 129 1 0 2 -26 2 -57z m2410 -196 c7 -61 18 -166 24 -232 6 -66 17
-174 25 -240 20 -167 28 -312 17 -300 -5 6 -15 82 -22 170 -6 88 -13 171 -15
185 -2 14 -9 70 -14 125 -6 55 -15 136 -21 180 -17 135 -23 240 -15 232 5 -4
14 -58 21 -120z m-111 17 c12 -60 22 -150 40 -374 6 -73 13 -228 21 -435 3
-93 8 -173 11 -177 2 -5 -1 -8 -6 -8 -6 0 -12 21 -12 48 -1 26 -3 56 -4 67 -3
24 -13 230 -21 425 -3 80 -12 190 -19 245 -8 55 -17 127 -20 160 -3 33 -8 76
-12 95 -11 63 7 25 22 -46z m-14 -114 c12 -85 23 -198 25 -250 2 -52 5 -131 8
-175 3 -44 8 -165 12 -270 3 -104 8 -193 11 -197 2 -5 -1 -8 -6 -8 -6 0 -11
21 -12 48 0 26 -2 54 -3 62 -5 22 -15 213 -21 380 -6 151 -20 332 -36 458 -10
81 -11 118 -4 111 2 -3 14 -74 26 -159z m-21 -71 c10 -90 19 -218 19 -284 1
-117 6 -219 20 -437 3 -60 3 -108 -1 -108 -5 0 -9 12 -9 28 -2 30 -4 62 -13
172 -3 41 -8 170 -12 285 -3 116 -14 281 -23 367 -9 87 -13 154 -8 149 5 -5
17 -82 27 -172z m-2093 139 c-2 -14 12 -179 18 -218 2 -14 7 -45 10 -70 8 -54
34 -180 39 -189 4 -7 11 -59 25 -186 11 -99 15 -392 5 -382 -4 3 -8 71 -10
149 -5 179 -27 379 -65 573 -32 168 -48 335 -32 335 6 0 10 -6 10 -12z m-124
-63 c4 -33 9 -95 13 -137 4 -43 10 -78 15 -78 5 0 7 6 4 13 -9 28 -14 140 -6
131 5 -5 11 -45 15 -89 3 -44 13 -120 21 -170 l14 -90 -4 75 c-3 41 -7 98 -10
125 -4 42 -2 39 10 -20 37 -178 65 -455 46 -455 -6 0 -11 18 -12 43 0 49 -7
111 -20 182 -7 44 -8 41 -3 -20 16 -202 28 -765 16 -765 -6 0 -10 77 -11 187
-3 294 -16 528 -36 633 -2 14 -7 66 -11 115 -7 93 -14 126 -14 61 0 -34 15
-192 25 -261 13 -94 24 -545 13 -545 -4 0 -8 42 -8 93 0 124 -8 261 -26 447
-35 356 -43 459 -44 524 0 83 5 83 13 1z m-339 -206 c3 -35 9 -190 12 -344 3
-154 8 -282 11 -285 6 -6 -5 595 -12 665 -4 37 -3 46 5 33 21 -34 31 -273 25
-598 -4 -179 -6 -337 -6 -353 1 -15 -3 -27 -9 -27 -8 0 -10 44 -8 135 2 74 0
135 -4 135 -5 0 -8 -17 -9 -37 -1 -21 -2 -53 -2 -70 -1 -33 -11 -44 -19 -20
-3 6 -1 53 4 102 10 114 10 108 8 251 -1 67 -6 127 -10 134 -4 7 -7 -44 -6
-114 1 -80 -2 -126 -9 -126 -6 0 -10 53 -10 143 0 130 1 142 18 139 16 -3 17
5 12 95 -6 109 -21 243 -35 316 -17 86 -9 75 15 -19 12 -50 25 -120 29 -155z
m530 204 c3 -21 6 -58 6 -83 1 -25 7 -74 15 -110 l14 -65 -4 55 c-15 173 -16
194 -7 180 5 -8 14 -62 21 -120 13 -109 28 -190 30 -155 0 11 -6 65 -14 120
-17 116 -19 168 -6 145 5 -8 12 -46 15 -85 4 -38 18 -128 31 -200 13 -71 27
-152 30 -180 3 -27 11 -68 16 -90 6 -22 12 -128 15 -235 2 -107 5 -219 6 -247
1 -29 -1 -56 -5 -60 -4 -3 -7 0 -8 8 0 8 -4 129 -9 269 -8 222 -13 273 -39
395 -31 151 -41 162 -16 20 9 -48 14 -90 11 -92 -6 -6 -24 63 -51 202 l-14 70
5 -75 c3 -58 2 -68 -6 -45 -14 45 -48 259 -54 343 -5 75 7 99 18 35z m-320
-138 c3 -33 8 -118 11 -190 3 -71 11 -175 16 -230 15 -153 22 -485 11 -485 -6
0 -10 66 -11 163 0 89 -3 180 -6 202 -10 85 -13 124 -30 375 -2 36 -7 126 -9
200 -5 133 5 115 18 -35z m-119 -129 c3 -56 8 -138 11 -184 7 -101 -6 -582
-16 -582 -4 0 -6 165 -4 368 1 202 -1 396 -6 432 -4 36 -11 85 -14 110 l-6 45
14 -44 c8 -24 17 -89 21 -145z m-22 -246 c2 -352 -2 -550 -13 -550 -4 0 -7
172 -6 383 0 210 -2 425 -6 477 l-6 95 14 -55 c11 -41 15 -129 17 -350z m417
-15 c16 -149 24 -535 12 -535 -7 0 -11 62 -11 175 0 172 -26 457 -57 630 -24
142 -13 125 17 -25 16 -80 34 -190 39 -245z m1315 233 c-4 -79 -9 -156 -10
-173 -2 -16 -4 -141 -5 -277 -1 -147 -5 -248 -11 -248 -20 0 -9 519 17 778 11
109 16 67 9 -80z m55 -104 c-7 -132 -10 -348 -7 -481 3 -134 2 -243 -3 -243
-5 0 -9 45 -9 100 0 55 -3 142 -6 193 -6 91 10 538 21 630 13 100 15 31 4
-199z m183 139 c-1 -48 -3 -261 -4 -473 -2 -212 -6 -369 -9 -350 -7 36 -8 674
-2 839 2 52 7 90 11 83 3 -6 6 -51 4 -99z m-1024 -22 c23 -115 25 -135 12
-127 -5 3 -12 27 -15 53 -9 67 -27 145 -33 140 -6 -7 16 -128 49 -267 23 -95
32 -163 39 -285 11 -226 11 -415 -1 -415 -6 0 -10 66 -10 178 -1 252 -8 338
-42 502 -17 80 -36 174 -44 210 -16 80 -18 122 -4 100 8 -12 10 -10 10 10 0
49 18 3 39 -99z m-99 48 c0 -12 7 -47 15 -78 8 -32 28 -127 44 -212 27 -142
29 -179 36 -473 4 -196 3 -316 -3 -312 -5 3 -12 144 -16 318 -8 323 -7 321
-69 651 -13 70 -20 127 -15 127 4 0 8 -9 8 -21z m-45 -54 c4 -22 22 -125 41
-228 31 -173 34 -204 34 -388 0 -120 -4 -198 -9 -194 -5 3 -10 94 -11 203 0
176 -4 218 -34 392 -44 254 -49 289 -37 270 6 -8 13 -33 16 -55z m871 -2 c-3
-32 -9 -83 -12 -113 -4 -30 -6 -243 -6 -472 1 -255 -3 -418 -8 -418 -22 0 -7
1015 16 1051 12 21 16 5 10 -48z m-998 -150 c40 -231 40 -233 47 -473 3 -107
8 -287 11 -399 4 -134 3 -201 -4 -197 -6 3 -11 64 -11 143 -1 76 -4 158 -6
183 -2 25 -7 151 -10 280 -3 129 -10 260 -15 290 -5 30 -11 69 -14 85 -2 17
-11 64 -20 105 -22 112 -29 170 -20 170 5 0 24 -84 42 -187z m-75 77 c48 -254
53 -309 62 -672 4 -186 3 -258 -5 -258 -7 0 -11 28 -10 83 2 105 -9 475 -15
547 -3 30 -19 129 -35 219 -33 178 -34 190 -22 176 5 -6 16 -48 25 -95z m47
-92 c18 -106 35 -229 36 -273 11 -266 16 -569 9 -563 -5 5 -9 50 -11 102 -12
436 -19 574 -27 596 -5 14 -44 228 -54 298 -3 17 -1 32 4 32 6 0 25 -87 43
-192z m49 71 c12 -74 28 -144 30 -124 1 6 -6 51 -14 100 -17 107 -17 105 -6
105 5 0 12 -24 16 -52 4 -29 18 -109 31 -178 25 -128 32 -250 14 -250 -6 0
-10 29 -10 68 -1 37 -7 96 -15 132 l-14 65 6 -55 c11 -100 18 -340 11 -340 -5
0 -8 6 -8 13 -3 118 -24 330 -43 432 -14 72 -28 148 -31 170 -6 38 -6 39 8 15
8 -14 19 -59 25 -101z m80 -99 c26 -141 31 -200 36 -405 3 -132 8 -260 10
-285 10 -125 15 -470 8 -470 -5 0 -10 12 -10 28 -1 122 -14 554 -18 622 -3 47
-8 146 -11 220 -3 74 -13 178 -23 230 -29 149 -41 225 -40 256 l1 29 9 -30 c5
-16 22 -104 38 -195z m55 185 c3 -17 21 -109 40 -205 33 -170 34 -184 41 -510
4 -184 10 -389 14 -455 4 -66 6 -122 4 -124 -8 -12 -13 14 -18 100 -3 51 -7
114 -10 139 -2 25 -7 187 -11 360 -5 290 -8 328 -35 474 -32 174 -45 264 -36
256 3 -3 8 -19 11 -35z m68 -47 c9 -46 28 -135 41 -199 23 -104 26 -146 31
-435 5 -229 3 -312 -4 -294 -6 13 -10 58 -9 100 0 41 -2 172 -6 290 -6 185
-11 240 -41 395 -19 99 -37 190 -40 203 -4 12 -2 22 3 22 5 0 16 -37 25 -82z
m-712 -18 c4 0 6 18 4 40 -3 24 -1 40 6 40 5 0 10 -8 10 -18 0 -18 14 -175 24
-277 3 -27 9 -121 12 -207 5 -119 4 -158 -5 -158 -9 0 -12 31 -11 108 1 59 -6
177 -14 262 -9 85 -16 165 -16 178 0 12 -4 22 -8 22 -4 0 -2 -62 4 -137 17
-200 26 -433 16 -433 -5 0 -9 42 -10 93 -2 93 -8 184 -22 312 -4 39 -7 115 -7
170 0 55 2 79 4 53 2 -27 8 -48 13 -48z m-309 -330 c-1 -133 -3 -245 -5 -249
-7 -11 -8 -137 -2 -218 3 -40 2 -73 -2 -73 -15 0 -19 170 -11 428 2 67 1 122
-3 122 -6 0 -14 -173 -9 -202 0 -5 -5 -8 -11 -8 -16 0 -13 379 3 395 7 7 9
-19 7 -83 -2 -61 1 -92 8 -92 7 0 9 24 6 70 -4 70 5 167 15 157 2 -3 4 -114 4
-247z m1655 148 c-7 -70 -21 -923 -17 -1030 1 -42 -2 -68 -9 -68 -5 0 -10 17
-11 38 -1 20 -2 56 -3 80 -1 23 0 42 3 42 4 0 7 210 9 467 1 257 -1 464 -5
459 -4 -4 -9 -116 -9 -249 -1 -191 -9 -637 -13 -704 -1 -7 -6 -13 -12 -13 -5
0 -7 5 -4 10 3 6 -1 13 -10 16 -13 6 -14 8 -3 15 10 7 10 9 1 9 -7 0 -13 5
-13 11 0 5 5 7 10 4 6 -3 10 -1 10 4 0 6 -4 11 -10 11 -5 0 -10 5 -10 11 0 5
6 7 13 3 9 -6 9 -4 -1 8 -10 12 -12 86 -9 339 4 307 8 359 27 359 15 0 6 64
-11 83 -13 14 -14 27 -8 60 4 23 8 49 9 57 0 10 3 11 8 4 4 -6 17 -14 30 -18
19 -6 22 -4 22 17 0 22 7 37 17 37 3 0 2 -28 -1 -62z m-1720 -180 c-3 -106 -6
-248 -7 -315 0 -76 -4 -123 -11 -123 -6 0 -9 67 -6 195 1 107 0 195 -4 195 -5
0 -8 -34 -8 -75 0 -44 -4 -75 -10 -75 -6 0 -8 40 -5 113 4 61 6 140 5 175 -1
34 3 62 8 62 5 0 10 -41 11 -92 3 -134 11 -122 11 15 0 81 4 117 11 117 9 0
10 -51 5 -192z m1262 131 c7 -28 10 -55 7 -59 -3 -5 -1 -11 4 -14 13 -8 13
-864 0 -871 -5 -4 -9 163 -9 427 0 343 -3 445 -15 493 -17 71 -17 75 -7 75 5
0 14 -23 20 -51z"/>
<path d="M1980 5193 c-25 -12 -63 -23 -85 -23 -51 -1 -131 -22 -132 -35 -1 -5
-7 -11 -14 -14 -7 -2 -9 1 -5 8 13 20 -18 11 -69 -19 -27 -16 -43 -30 -35 -30
8 1 24 7 34 15 11 8 24 15 29 15 6 0 -7 -11 -27 -25 -20 -14 -41 -25 -45 -25
-5 0 -23 -16 -40 -35 -17 -19 -33 -35 -36 -35 -15 0 -110 -72 -192 -145 -88
-79 -145 -157 -183 -255 -8 -19 -25 -50 -37 -69 -20 -29 -24 -40 -23 -66 0 -3
-11 -26 -25 -53 -14 -26 -25 -56 -25 -67 0 -11 -9 -44 -21 -74 -11 -30 -18
-59 -16 -66 3 -6 1 -49 -4 -96 -5 -46 -12 -103 -14 -127 -4 -33 0 -47 15 -62
13 -13 20 -33 20 -60 0 -36 6 -48 45 -94 12 -14 55 -98 55 -107 0 -4 -12 -6
-26 -6 -32 0 -64 -28 -37 -31 40 -4 53 -9 72 -26 18 -16 21 -30 19 -95 -1 -42
-3 -80 -6 -84 -2 -4 -5 -33 -7 -63 -2 -40 -10 -63 -24 -78 -18 -19 -19 -24 -7
-36 8 -8 17 -26 19 -40 2 -14 2 -20 0 -13 -2 7 -13 15 -24 18 -11 4 -24 16
-30 28 -7 18 -8 15 -7 -18 1 -22 -6 -55 -16 -73 -11 -22 -15 -44 -11 -62 7
-31 56 -80 80 -80 25 0 65 23 65 37 0 17 -15 17 -30 -2 -17 -21 -63 -19 -83 3
-26 28 -21 45 9 39 17 -3 33 2 45 14 18 18 19 18 32 -2 12 -17 15 -18 20 -4 4
8 3 15 -2 15 -4 0 -5 20 -1 45 4 24 4 49 1 54 -19 30 5 272 44 451 8 36 21
103 30 150 10 56 25 99 43 125 38 57 52 85 52 104 0 9 6 23 13 30 10 11 9 13
-5 8 -19 -7 -25 8 -8 18 6 3 10 17 10 31 0 26 51 69 123 102 124 58 157 71
207 86 73 21 103 21 180 3 120 -29 258 3 340 77 73 66 95 74 228 81 30 1 59 8
65 14 16 16 37 14 37 -5 0 -8 4 -13 10 -9 5 3 17 -7 27 -22 10 -15 20 -30 24
-33 3 -3 12 -20 20 -37 8 -18 18 -33 22 -33 5 0 5 -5 2 -10 -3 -6 1 -13 9 -16
9 -3 14 -10 11 -14 -3 -4 1 -13 9 -19 16 -13 27 -60 33 -141 7 -88 7 -90 15
-90 4 0 5 -23 3 -52 -2 -35 -9 -56 -21 -65 -11 -8 -13 -13 -5 -13 8 0 11 -6 7
-15 -3 -8 6 -26 20 -40 23 -23 23 -25 5 -25 -11 0 -27 10 -35 21 -15 22 -171
84 -186 74 -4 -3 -34 -6 -67 -6 -32 -1 -66 -6 -75 -11 -12 -5 -18 -5 -18 2 0
17 -19 11 -38 -11 -9 -11 -25 -30 -36 -42 l-19 -22 7 30 c5 22 4 26 -4 15 -18
-27 -11 -64 18 -88 15 -13 20 -22 12 -21 -21 5 -81 -21 -74 -32 3 -5 -2 -9
-10 -9 -9 0 -16 -5 -16 -11 0 -11 23 -8 67 8 13 4 11 -1 -9 -24 -16 -16 -28
-37 -28 -47 0 -14 9 -10 46 18 44 34 98 58 158 71 46 10 26 12 -51 6 -40 -4
-73 -3 -73 1 0 37 152 93 235 87 11 -1 37 -2 57 -2 20 -1 36 -4 36 -7 -2 -20
7 -28 42 -40 21 -7 37 -17 34 -21 -3 -5 4 -16 16 -26 11 -10 20 -23 20 -30 0
-7 5 -13 11 -13 5 0 7 6 4 13 -4 6 0 5 7 -4 11 -14 15 -14 26 -3 7 8 10 18 7
23 -3 5 -1 12 5 16 7 4 7 13 -1 26 -6 12 -8 23 -5 26 8 8 27 -7 21 -17 -3 -5
-2 -18 4 -28 5 -10 12 -38 16 -62 4 -25 9 -48 12 -53 3 -4 14 -50 25 -100 22
-104 26 -227 9 -278 -6 -20 -12 -68 -14 -109 l-2 -73 32 -13 c18 -8 40 -14 50
-13 10 0 2 5 -17 11 -50 14 -55 23 -31 56 12 17 21 45 21 65 0 19 7 47 15 63
8 16 10 31 5 34 -14 9 -16 298 -2 312 9 9 12 8 12 -6 0 -12 5 -16 19 -11 17 5
19 1 15 -54 -2 -33 0 -62 5 -65 9 -6 15 20 27 113 l7 53 -32 -7 c-31 -7 -32
-6 -19 14 7 12 14 17 16 11 5 -13 32 -13 32 0 0 5 -9 15 -20 22 -11 7 -20 18
-20 24 0 7 27 40 59 73 55 57 89 118 82 149 -1 8 3 19 9 26 5 8 15 67 20 132
5 66 12 128 14 139 2 11 7 46 11 78 4 31 11 59 15 62 14 9 -10 110 -41 173
-32 66 -144 186 -162 175 -6 -3 -7 -1 -3 5 10 16 -90 78 -204 126 -86 37 -104
41 -190 43 -61 1 -94 5 -92 12 1 6 -2 11 -8 11 -5 0 -10 6 -10 14 0 20 -83
126 -158 202 -58 59 -67 64 -106 64 -24 0 -63 8 -87 19 -68 29 -117 30 -169 4z"/>
<path d="M1515 3886 c-11 -8 -29 -16 -39 -16 -23 0 -119 -96 -111 -110 8 -12
16 -12 35 0 13 9 13 11 0 21 -13 9 -13 10 2 6 9 -3 29 5 45 19 25 22 54 30 92
25 7 -2 10 2 6 8 -3 6 1 11 9 11 21 0 160 -38 201 -56 44 -18 94 -19 77 -2 -7
7 -12 21 -11 32 0 12 3 15 6 9 2 -7 10 -13 16 -13 6 0 0 11 -13 25 -15 16 -19
25 -10 25 10 0 11 3 3 11 -11 11 -69 16 -128 10 -16 -2 -59 0 -95 4 -51 5 -69
4 -85 -9z"/>
<path d="M2518 3741 c67 -17 57 -29 -21 -24 -62 4 -83 2 -123 -16 -53 -24
-104 -67 -104 -88 0 -8 11 -13 28 -12 17 1 21 3 9 6 -27 7 -16 24 34 55 55 33
59 34 59 3 0 -30 41 -75 67 -75 27 1 50 22 65 59 l14 34 29 -25 c26 -23 28
-28 15 -43 -8 -9 -23 -21 -35 -26 -13 -6 -2 -7 35 -4 30 4 62 13 71 21 10 9
25 14 36 12 14 -2 18 3 18 27 0 26 -7 33 -69 63 -40 20 -89 36 -115 38 -42 3
-43 3 -13 -5z"/>
<path d="M1697 3731 c17 -5 38 -15 47 -23 13 -14 8 -15 -49 -11 -36 3 -77 1
-96 -6 -25 -9 -34 -8 -41 1 -5 9 2 17 20 26 27 13 27 13 -10 8 -21 -2 -57 -18
-82 -35 -25 -17 -49 -31 -53 -31 -16 0 -31 -21 -26 -38 6 -25 86 -55 123 -47
29 6 30 8 13 20 -17 13 -16 15 10 42 28 27 29 27 40 9 22 -36 47 -56 70 -56
27 0 67 38 67 63 0 23 6 22 75 -13 l60 -30 -32 28 c-40 34 -42 45 -7 32 34
-13 44 -13 44 3 0 7 -14 21 -30 31 -17 9 -28 21 -26 25 3 4 -30 7 -72 8 -55 1
-68 -1 -45 -6z"/>
<path d="M1703 2874 c-18 -18 -33 -37 -33 -41 0 -5 21 -9 48 -10 26 -1 64 -3
84 -5 23 -3 36 0 35 6 -1 7 43 11 133 12 74 1 162 3 195 4 33 2 77 3 98 2 33
-2 37 -5 37 -29 0 -20 3 -24 9 -14 5 7 13 11 19 7 6 -3 25 2 44 13 21 12 45
18 67 15 30 -4 33 -2 27 19 -3 12 -6 25 -6 28 0 7 -32 19 -70 25 -16 3 -20 1
-13 -4 10 -6 10 -12 0 -26 -12 -16 -19 -17 -64 -8 -40 9 -70 8 -139 -4 -96
-17 -262 -13 -274 7 -5 7 -19 7 -47 0 -58 -16 -111 -11 -106 10 8 30 -11 27
-44 -7z"/>
</g>
</svg>
